<svg aria-hidden="true" style="position: absolute; width: 0; height: 0; overflow: hidden;" version="1.1" xmlns="http://www.w3.org/2000/svg" xmlns:xlink="http://www.w3.org/1999/xlink">
<defs>
<symbol id="icon-trash" viewBox="0 0 32 32">
<path stroke-linejoin="round" stroke-linecap="round" stroke-miterlimit="4" stroke-width="2" d="M7 7l1.25 20c0.059 1.156 0.9 2 2 2h11.5c1.104 0 1.929-0.844 2-2l1.25-20"></path>
<path stroke-linejoin="miter" stroke-linecap="round" stroke-miterlimit="10" stroke-width="2" d="M5 7h22"></path>
<path stroke-linejoin="round" stroke-linecap="round" stroke-miterlimit="4" stroke-width="2" d="M12 7v-2.5c0-0.001 0-0.003 0-0.004 0-0.826 0.67-1.496 1.496-1.496 0.002 0 0.003 0 0.005 0h5c0.001 0 0.003 0 0.004 0 0.826 0 1.496 0.67 1.496 1.496 0 0.002 0 0.003 0 0.005v-0 2.5M16 11v14M11.5 11l0.5 14M20.5 11l-0.5 14"></path>
</symbol>
<symbol id="icon-cart" viewBox="0 0 32 32">
<path d="M32 4l-0.991 2.667h-2.572l-4.632 16h-17.652l-6.153-14.667h22.416l-0.752 2.667h-17.653l3.916 9.333h13.904l4.576-16h5.593zM11.333 24c-1.104 0-2 0.896-2 2 0 1.105 0.896 2 2 2s2-0.895 2-2c0-1.104-0.896-2-2-2zM20.533 14.667l-2.533 9.333c-1.104 0-2 0.895-2 2s0.896 2 2 2 2-0.895 2-2c0-1.104-0.896-2-2-2z"></path>
</symbol>
<symbol id="icon-cupcake" viewBox="0 0 32 32">
<path d="M22.453 32h-12.907l-4.213-10.667h21.333l-4.213 10.667zM11.261 24h-2.007l2.107 5.333h9.277l2.107-5.333h-2.007l-2.072 4.64v-4.64h-1.631l-1.036 4.64-1.036-4.64h-1.631v4.64l-2.072-4.64zM14.667 8.085v-1.419h2.667v1.407c2.841 0.345 5.709 1.893 7.703 4.667 1.671 0.333 2.965 1.804 2.965 3.593 0 1.913-1.5 3.589-3.609 3.665-0.175 0.003-16.607 0.003-16.781 0-2.141-0.079-3.611-1.791-3.611-3.663 0-1.685 1.167-3.197 2.913-3.584 1.784-2.515 4.451-4.268 7.753-4.667zM16 10.667h-0.173c-3.501 0.097-5.664 1.9-7.396 4.651-0.247 0.005-0.567-0.004-0.844 0.023-0.488 0.061-0.832 0.411-0.904 0.82-0.105 0.581 0.337 1.148 0.993 1.173 0.551 0.007 16.159 0.001 16.704 0 1.303-0.005 1.252-1.945-0.055-2h-0.775c-1.851-2.877-4.095-4.639-7.551-4.667zM12.333 14c0.552 0 1 0.448 1 1s-0.448 1-1 1-1-0.448-1-1 0.448-1 1-1zM19.667 14c0.552 0 1 0.448 1 1s-0.448 1-1 1-1-0.448-1-1 0.448-1 1-1zM16 12c0.736 0 1.333 0.597 1.333 1.333s-0.597 1.333-1.333 1.333-1.333-0.597-1.333-1.333 0.597-1.333 1.333-1.333zM14.871 5.991c-2.529-0.823-1.801-4.561 1.187-5.991 0.107 1.884 2.609 2.073 2.609 3.976 0 0.797-0.589 1.688-1.445 2.015 0.205-0.675-0.247-1.875-1.173-2.396-0.936 0.54-1.419 1.724-1.177 2.396z"></path>
</symbol>
<symbol id="icon-cake" viewBox="0 0 32 32">
<path d="M5.333 12v-2.632h2.667v2.632h6.667v-5.333h2.667v5.333h6.667v-2.667h2.667v2.667h1.007c2.404 0.121 4.324 2.195 4.324 4.692 0 1.281-0.509 2.439-1.331 3.277v12.031h-29.333v-12.027c-0.573-0.584-0.996-1.324-1.2-2.161-0.089-0.368-0.133-0.744-0.133-1.121 0-2.679 2.172-4.639 4.323-4.691h1.011zM28 26.667h-24v2.667h24v-2.667zM4 21.297v2.703h24v-2.703l-0.543 0.033c-1.033 0-2.055-0.36-2.872-1.053-0.768 0.651-1.777 1.052-2.873 1.052-1.083 0-2.088-0.393-2.856-1.039-0.775 0.649-1.788 1.040-2.848 1.040-1.076 0-2.1-0.389-2.865-1.040-0.781 0.655-1.795 1.040-2.849 1.040-1.033 0-2.035-0.347-2.88-1.053-0.748 0.639-1.771 1.053-2.872 1.053l-0.541-0.033zM4.387 14.667c-0.836 0.065-1.657 0.847-1.717 1.895-0.068 1.183 0.843 2.113 1.939 2.101 1.568-0.019 2.553-1.147 2.823-2.663 0.289 1.173 1.315 2.633 2.86 2.661 1.541 0.028 2.653-1.279 2.881-2.611l0.011-0.051c0.265 1.387 1.32 2.661 2.812 2.661 1.54 0 2.556-1.163 2.896-2.661 0.331 1.517 1.38 2.659 2.823 2.663 1.477 0.004 2.607-1.237 2.937-2.663 0.251 1.104 1.072 2.647 2.735 2.664 1.012 0.011 1.947-0.867 1.947-1.977 0-1.116-0.865-1.975-1.757-2.023l-23.188 0.003zM5.537 8.732c-2.529-0.828-1.801-4.592 1.187-6.031 0.107 1.896 2.609 2.088 2.609 4.003 0 0.803-0.588 1.699-1.445 2.028 0.205-0.679-0.248-1.888-1.173-2.412-0.936 0.543-1.417 1.736-1.177 2.412zM24.203 8.697c-2.528-0.828-1.8-4.592 1.188-6.031 0.107 1.896 2.609 2.088 2.609 4.003 0 0.803-0.588 1.699-1.445 2.028 0.204-0.679-0.248-1.888-1.173-2.412-0.936 0.543-1.417 1.736-1.179 2.412zM14.871 6.031c-2.529-0.828-1.801-4.592 1.187-6.031 0.107 1.896 2.609 2.088 2.609 4.003 0 0.803-0.588 1.699-1.445 2.028 0.204-0.679-0.248-1.888-1.173-2.412-0.936 0.543-1.417 1.736-1.177 2.412z"></path>
</symbol>
<symbol id="icon-ice-cream" viewBox="0 0 32 32">
<path d="M7.361 11.965c-0.443-0.777-0.695-1.676-0.695-2.632 0-2.532 1.768-4.653 4.136-5.197 0.544-2.368 2.665-4.136 5.197-4.136s4.653 1.768 5.197 4.136c2.368 0.544 4.136 2.665 4.136 5.197 0 0.956-0.252 1.855-0.695 2.631 0.436 0.564 0.695 1.269 0.695 2.036 0 1.745-1.343 3.18-3.052 3.321l-0.003 0.012c-0.313 1.14-3.192 11.592-3.56 12.717-0.465 1.271-1.567 1.949-2.719 1.949-1.137 0-2.244-0.663-2.719-1.949-0.347-1.068-2.961-10.547-3.564-12.729-1.708-0.143-3.051-1.577-3.051-3.321 0-0.767 0.259-1.472 0.695-2.035zM22.016 13.333h-12.016c-0.367 0-0.667 0.299-0.667 0.667s0.3 0.667 0.667 0.667h1.769c0.081 0.291 3.927 14.257 4.041 14.532 0.085 0.192 0.317 0.173 0.388-0.019 0.127-0.391 1.563-5.476 2.156-7.625 0.604-2.185 1.877-6.888 1.877-6.888h1.784c0.361-0.008 0.651-0.304 0.651-0.667s-0.289-0.657-0.651-0.667zM22.301 10.68c0.232-0.395 0.365-0.856 0.365-1.347 0-1.684-1.488-3.324-4-2.667 0.628-2.065-0.743-3.996-2.667-4-1.339-0.003-2.396 1.012-2.747 2.183 1.471 0.961 2.153 2.633 1.924 4.484-1.252-3.98-5.844-3.024-5.844 0 0 0.491 0.133 0.952 0.365 1.347l0.301-0.013 12.301 0.013z"></path>
</symbol>
<symbol id="icon-drink" viewBox="0 0 32 32">
<path d="M19.881 13.333c-0.411 4.433-1.864 7.616-3.932 10.667h-6.567c-1.831-2.679-3.483-5.829-3.931-10.667h14.429zM22.667 10.667h-20c0 7.621 2.435 11.995 5.333 16h9.333c2.827-3.881 5.333-8.444 5.333-16zM24.159 13.333c-0.076 0.935-0.188 1.823-0.336 2.667h2.067c-0.599 1.72-2 3.304-3.065 3.885-0.477 1.384-1.049 2.641-1.68 3.803 4.365-1.524 7.795-6.012 8.189-10.355h-5.175zM13.832 9.332c6.316-5.693-1.307-5.392 0.156-9.332-5.044 5.089 1.879 5.203-0.156 9.332zM10.125 9.333c4.205-3.767-0.885-4.136 0.116-6.799-3.523 3.716 1.267 3.812-0.116 6.799zM22.667 29.333h-20v2.667h20v-2.667z"></path>
</symbol>
</defs>
</svg>
